<?xml version="1.0" encoding="UTF-8" standalone="no"?>
<!-- Created with Inkscape (http://www.inkscape.org/) -->

<svg
   width="327.56366"
   height="141.39789"
   viewBox="0 0 327.56366 141.39789"
   version="1.1"
   id="svg1"
   xmlns:xlink="http://www.w3.org/1999/xlink"
   xmlns="http://www.w3.org/2000/svg"
   xmlns:svg="http://www.w3.org/2000/svg">
  <defs
     id="defs1">
    <linearGradient
       id="linearGradient45">
      <stop
         style="stop-color:#ffffd8;stop-opacity:1;"
         offset="0"
         id="stop45" />
      <stop
         style="stop-color:#025e73;stop-opacity:0.29535753;"
         offset="1"
         id="stop46" />
    </linearGradient>
    <linearGradient
       id="swatch43">
      <stop
         style="stop-color:#025e73;stop-opacity:1;"
         offset="0"
         id="stop44" />
    </linearGradient>
    <radialGradient
       xlink:href="#linearGradient45"
       id="radialGradient46"
       cx="471.26352"
       cy="370.43137"
       fx="471.26352"
       fy="370.43137"
       r="55.876774"
       gradientTransform="matrix(0.93960545,0,0,1.1863717,67.059382,-92.134979)"
       gradientUnits="userSpaceOnUse" />
  </defs>
  <g
     id="layer1"
     transform="translate(-281.74005,-299.7323)">
    <path
       d="m 562.49198,404.74132 q -18.38471,6.66896 -38.75207,6.66896 -20.00688,0 -33.88553,-8.29114 -14.41938,-8.47138 -22.53027,-23.25124 -8.1109,-14.77986 -8.1109,-32.44359 0,-29.01899 19.10567,-47.22345 17.84397,-16.94277 46.68272,-16.94277 19.10567,0 37.49038,6.66896 v 31.00166 h -13.51817 l -3.60484,-19.82664 -2.52339,-3.06412 q -8.1109,-2.88387 -14.59962,-2.88387 -19.10567,0 -30.46093,13.87864 -11.35525,13.87865 -11.35525,38.21135 0,24.69317 11.71574,38.75206 11.71574,13.87865 32.44359,13.87865 4.6863,0 11.35526,-1.62218 l 2.70363,-2.88387 4.6863,-22.35003 h 13.15768 z"
       id="text2"
       style="font-weight:bold;font-size:184.568px;line-height:1.25;font-family:'Bitstream Charter';-inkscape-font-specification:'Bitstream Charter, Bold';baseline-shift:baseline;white-space:pre;fill:#e7ac35;stroke:url(#radialGradient46);stroke-width:4.4293"
       transform="scale(0.9376482,1.0664981)"
       aria-label="C" />
    <path
       d="m 331.54491,309.66609 v 2.94271 l -5.13021,0.70313 q 0.72917,0.91145 1.22396,2.34374 0.49479,1.40625 0.49479,3.20313 0,1.97916 -0.625,3.67187 -0.59896,1.66667 -1.84896,2.89062 -1.22395,1.22396 -3.04687,1.92709 -1.82292,0.67708 -4.24479,0.67708 -0.57292,0 -1.14583,0 -0.57292,-0.026 -0.9375,-0.10417 -0.44271,0.26042 -0.88542,0.59896 -0.41666,0.3125 -0.78125,0.72917 -0.33854,0.41666 -0.57291,0.9375 -0.20834,0.52083 -0.20834,1.14583 0,0.70312 0.3125,1.14583 0.3125,0.41667 0.83334,0.65104 0.54687,0.23438 1.27604,0.3125 0.72916,0.0781 1.53645,0.0781 h 4.58333 q 2.42188,0 4.08854,0.625 1.66667,0.59895 2.70834,1.64062 1.0677,1.04167 1.53645,2.47396 0.46875,1.40625 0.46875,2.99479 0,2.29166 -0.85937,4.11458 -0.83333,1.82291 -2.57813,3.07291 -1.74479,1.27604 -4.42708,1.95313 -2.65624,0.67708 -6.27603,0.67708 -2.78646,0 -4.86979,-0.54687 -2.08333,-0.54688 -3.46354,-1.58855 -1.38021,-1.04166 -2.08333,-2.52604 -0.67709,-1.45833 -0.67709,-3.30729 0,-1.56249 0.49479,-2.76041 0.52084,-1.17187 1.38021,-2.03125 0.85938,-0.85937 1.97917,-1.40625 1.14583,-0.54687 2.36979,-0.83333 -1.09375,-0.49479 -1.79688,-1.5625 -0.70312,-1.06771 -0.70312,-2.44792 0,-1.58854 0.83333,-2.73437 0.83333,-1.17187 2.63021,-2.26562 -1.11979,-0.46875 -2.05729,-1.27604 -0.91146,-0.83334 -1.5625,-1.875 -0.625,-1.06771 -0.98958,-2.31771 -0.33855,-1.25 -0.33855,-2.57812 0,-2.31771 0.65105,-4.14063 0.65104,-1.82291 1.92708,-3.09895 1.27604,-1.27604 3.17708,-1.95313 1.90104,-0.67708 4.42708,-0.67708 0.96354,0 1.97917,0.15625 1.04166,0.13021 1.74479,0.36458 z m -21.11978,33.28123 q 0,0.96355 0.33854,1.79688 0.33854,0.83333 1.09375,1.43229 0.78125,0.59896 2.03125,0.9375 1.27604,0.36458 3.15104,0.36458 4.84374,0 7.23958,-1.51041 2.42187,-1.48438 2.42187,-4.29688 0,-1.19791 -0.3125,-1.95312 -0.3125,-0.75521 -1.04167,-1.19792 -0.70312,-0.41666 -1.875,-0.57291 -1.17187,-0.15625 -2.86458,-0.15625 h -4.58333 q -0.91146,0 -1.90104,0.20833 -0.98958,0.20833 -1.82291,0.78125 -0.8073,0.57292 -1.35417,1.5625 -0.52083,1.01562 -0.52083,2.60416 z m 2.39583,-24.08852 q 0,2.99479 1.40625,4.45312 1.40625,1.45833 3.98437,1.45833 2.60417,0 3.93229,-1.43229 1.35417,-1.45833 1.35417,-4.55729 0,-3.20312 -1.38021,-4.71354 -1.35417,-1.51041 -3.95833,-1.51041 -2.57813,0 -3.95833,1.5625 -1.38021,1.5625 -1.38021,4.73958 z m 35.62498,19.92186 q -2.86458,0 -5.23437,-0.96354 -2.36979,-0.96354 -4.08854,-2.8125 -1.69271,-1.84896 -2.63021,-4.58333 -0.9375,-2.73437 -0.9375,-6.25 0,-3.54166 0.85937,-6.32812 0.85938,-2.78645 2.42188,-4.71354 1.5625,-1.95312 3.72395,-2.96874 2.1875,-1.01563 4.81771,-1.01563 2.57812,0 4.63541,0.9375 2.05729,0.91146 3.48959,2.60417 1.43229,1.66666 2.18749,4.03645 0.78125,2.34375 0.78125,5.20833 v 2.94271 h -18.02082 q 0.13021,5.02604 2.10937,7.39583 2.00521,2.36979 5.9375,2.36979 1.32813,0 2.44792,-0.13021 1.14583,-0.13021 2.18749,-0.36458 1.06771,-0.26042 2.0573,-0.625 0.98958,-0.39063 2.0052,-0.85938 v 4.21875 q -1.04166,0.49479 -2.05729,0.85937 -0.98958,0.36459 -2.05729,0.59896 -1.04166,0.23438 -2.1875,0.33854 -1.11979,0.10417 -2.44791,0.10417 z m -1.17188,-25.70311 q -2.96874,0 -4.71354,2.03125 -1.71874,2.03125 -2.0052,5.91145 h 12.81249 q 0,-1.77083 -0.36458,-3.22916 -0.33854,-1.48437 -1.09375,-2.52604 -0.72917,-1.04167 -1.875,-1.61458 -1.14583,-0.57292 -2.76042,-0.57292 z m 36.27602,25.18228 v -18.41145 q 0,-3.38541 -1.3802,-5.07812 -1.35417,-1.69271 -4.27084,-1.69271 -2.10937,0 -3.54166,0.67708 -1.43229,0.67709 -2.31771,2.00521 -0.85937,1.32813 -1.25,3.25521 -0.36458,1.92708 -0.36458,4.42708 v 14.8177 h -4.73958 v -28.59374 h 3.85416 l 0.67709,3.85417 h 0.26041 q 0.65104,-1.11979 1.53646,-1.92708 0.91146,-0.83334 1.97917,-1.38021 1.0677,-0.54688 2.26562,-0.80729 1.19792,-0.26042 2.44792,-0.26042 4.76562,0 7.16145,2.5 2.42187,2.47396 2.42187,7.9427 v 18.67187 z m 24.84374,0.52083 q -2.86458,0 -5.23437,-0.96354 -2.36979,-0.96354 -4.08854,-2.8125 -1.69271,-1.84896 -2.63021,-4.58333 -0.9375,-2.73437 -0.9375,-6.25 0,-3.54166 0.85937,-6.32812 0.85938,-2.78645 2.42188,-4.71354 1.5625,-1.95312 3.72395,-2.96874 2.1875,-1.01563 4.81771,-1.01563 2.57812,0 4.63541,0.9375 2.05729,0.91146 3.48958,2.60417 1.4323,1.66666 2.1875,4.03645 0.78125,2.34375 0.78125,5.20833 v 2.94271 h -18.02082 q 0.13021,5.02604 2.10937,7.39583 2.00521,2.36979 5.9375,2.36979 1.32812,0 2.44792,-0.13021 1.14583,-0.13021 2.18749,-0.36458 1.06771,-0.26042 2.0573,-0.625 0.98958,-0.39063 2.0052,-0.85938 v 4.21875 q -1.04166,0.49479 -2.05729,0.85937 -0.98958,0.36459 -2.05729,0.59896 -1.04166,0.23438 -2.1875,0.33854 -1.11979,0.10417 -2.44791,0.10417 z m -1.17188,-25.70311 q -2.96875,0 -4.71354,2.03125 -1.71874,2.03125 -2.0052,5.91145 h 12.81249 q 0,-1.77083 -0.36458,-3.22916 -0.33855,-1.48437 -1.09375,-2.52604 -0.72917,-1.04167 -1.875,-1.61458 -1.14583,-0.57292 -2.76042,-0.57292 z m 30.78123,-3.93229 q 0.75521,0 1.69271,0.0781 0.9375,0.0521 1.61458,0.18229 l -0.625,4.375 q -0.72916,-0.13021 -1.51041,-0.20834 -0.75521,-0.10416 -1.43229,-0.10416 -1.64063,0 -2.99479,0.67708 -1.35417,0.65104 -2.34375,1.90104 -0.96354,1.22396 -1.51042,2.96875 -0.52083,1.71875 -0.52083,3.82812 v 15.41666 h -4.73958 v -28.59374 h 3.85416 l 0.57292,5.23438 h 0.20833 q 0.65104,-1.11979 1.38021,-2.16146 0.75521,-1.04167 1.66667,-1.82292 0.9375,-0.80729 2.08333,-1.27604 1.14583,-0.49479 2.60416,-0.49479 z m 13.64583,29.11457 h -4.73958 v -28.59374 h 4.73958 z m -5.10416,-36.32811 q 0,-1.56249 0.78125,-2.26562 0.80729,-0.70312 1.97916,-0.70312 0.57292,0 1.06771,0.18229 0.52083,0.15625 0.88542,0.52083 0.39062,0.36458 0.59895,0.9375 0.23438,0.54687 0.23438,1.32812 0,1.51042 -0.83333,2.26563 -0.80729,0.72916 -1.95313,0.72916 -1.17187,0 -1.97916,-0.72916 -0.78125,-0.72917 -0.78125,-2.26563 z"
       id="text4"
       style="font-size:53.3333px;line-height:1.25;font-family:'Droid Sans';-inkscape-font-specification:'Droid Sans, Normal';baseline-shift:baseline;white-space:pre;fill:#ffffff;stroke:#025e73;stroke-width:0.96;stroke-opacity:0.294118"
       transform="translate(-23.725922,8.6048766)"
       aria-label="generi" />
    <path
       d="m 640.46223,443.76764 v -18.41145 q 0,-3.38541 -1.38021,-5.07812 -1.35417,-1.69271 -4.27083,-1.69271 -2.10938,0 -3.54167,0.67709 -1.43229,0.67708 -2.3177,2.0052 -0.85938,1.32813 -1.25,3.25521 -0.36459,1.92708 -0.36459,4.42708 v 14.8177 h -4.73958 v -40.52081 h 4.73958 v 12.03124 l -0.20833,3.75 h 0.26042 q 0.65104,-1.11979 1.53645,-1.92708 0.91146,-0.83333 1.97917,-1.38021 1.06771,-0.54687 2.26562,-0.80729 1.19792,-0.26042 2.44792,-0.26042 4.76562,0 7.16145,2.5 2.42188,2.47396 2.42188,7.94271 v 18.67186 z m 29.66144,0 -0.96354,-3.95833 h -0.20834 q -0.85937,1.17187 -1.71875,2.03125 -0.85937,0.83333 -1.875,1.38021 -1.01562,0.54687 -2.26562,0.80729 -1.25,0.26041 -2.89062,0.26041 -1.79688,0 -3.30729,-0.52083 -1.51042,-0.49479 -2.63021,-1.53646 -1.09375,-1.06771 -1.71875,-2.65625 -0.625,-1.61458 -0.625,-3.80208 0,-4.27083 2.99479,-6.56249 3.02083,-2.29167 9.16666,-2.5 l 4.79167,-0.18229 v -1.79688 q 0,-1.74479 -0.39063,-2.91666 -0.36458,-1.17188 -1.09375,-1.875 -0.70312,-0.72917 -1.77083,-1.04167 -1.04167,-0.3125 -2.39583,-0.3125 -2.16146,0 -4.03646,0.625 -1.84895,0.625 -3.5677,1.51042 l -1.66667,-3.56771 q 1.92708,-1.04166 4.29687,-1.77083 2.36979,-0.72917 4.97396,-0.72917 2.65625,0 4.58333,0.54688 1.95312,0.52083 3.20312,1.69271 1.27604,1.14583 1.90104,2.9427 0.625,1.79688 0.625,4.34896 v 19.58332 z m -8.69791,-3.30729 q 1.58854,0 2.9427,-0.49479 1.35417,-0.49479 2.34375,-1.48438 0.98958,-1.01562 1.53646,-2.52604 0.57291,-1.53645 0.57291,-3.59374 v -2.57813 l -3.72395,0.18229 q -2.34375,0.10417 -3.93229,0.52084 -1.58854,0.41666 -2.55208,1.17187 -0.9375,0.72917 -1.35417,1.79688 -0.41667,1.04166 -0.41667,2.36979 0,2.39583 1.25,3.51562 1.27604,1.11979 3.33334,1.11979 z m 29.53123,-0.0521 q 0.46875,0 1.04166,-0.0521 0.59896,-0.0521 1.14584,-0.1302 0.54687,-0.0781 0.98958,-0.1823 0.46875,-0.10416 0.70312,-0.18229 v 3.59375 q -0.33854,0.15625 -0.85937,0.3125 -0.52083,0.15625 -1.14583,0.26042 -0.625,0.1302 -1.30209,0.18229 -0.67708,0.0781 -1.32812,0.0781 -1.61458,0 -2.99479,-0.41666 -1.38021,-0.41667 -2.39583,-1.43229 -0.98959,-1.01563 -1.5625,-2.73438 -0.57292,-1.74479 -0.57292,-4.37499 v -16.58854 h -4.03645 v -2.10937 l 4.03645,-2.03125 2.03125,-5.98958 h 2.73437 v 6.5625 h 7.1875 v 3.5677 h -7.1875 v 16.58854 q 0,2.52604 0.80729,3.80208 0.83334,1.27604 2.70834,1.27604 z"
       id="text5"
       style="font-size:53.3333px;line-height:1.25;font-family:'Droid Sans';-inkscape-font-specification:'Droid Sans, Normal';baseline-shift:baseline;white-space:pre;fill:#ffffff;stroke:#025e73;stroke-width:0.96;stroke-opacity:0.294118"
       transform="translate(-86.013452,-16.061261)"
       aria-label="hat" />
  </g>
</svg>
